# xmcd
#
# Track frame offsets: 
#        150
#        14850
#        30143
#        43161
#        59928
#        74783
#        89971
#        105802
#        119930
#        143585
#
# Disc length: 2115 seconds
#
# Revision: 0
# Processed by: cddbd v1.5PL3 Copyright (c) Steve Scherf et al.
# Submitted via: ExactAudioCopy v0.95a5
#
DISCID=9d08410a
DTITLE=Traveling Wilburys - The Traveling Wilburys
DYEAR=1988
DGENRE=Blues
TTITLE0=Handle with care
TTITLE1=Dirty World
TTITLE2=Rattled
TTITLE3=Last Night
TTITLE4=Not alone any more
TTITLE5=Congratulations
TTITLE6=Heading for the light
TTITLE7=Margarita
TTITLE8=Tweeter and The Monkey Man
TTITLE9=End of The Line
EXTD=
EXTT0=
EXTT1=
EXTT2=
EXTT3=
EXTT4=
EXTT5=
EXTT6=
EXTT7=
EXTT8=
EXTT9=
PLAYORDER=
